<?xml version="1.0" standalone="no"?>
<!DOCTYPE svg PUBLIC "-//W3C//DTD SVG 20010904//EN"
 "http://www.w3.org/TR/2001/REC-SVG-20010904/DTD/svg10.dtd">
<svg version="1.0" xmlns="http://www.w3.org/2000/svg"
 width="1080.000000pt" height="1080.000000pt" viewBox="0 0 1080.000000 1080.000000"
 preserveAspectRatio="xMidYMid meet">

<g transform="translate(0.000000,1080.000000) scale(0.100000,-0.100000)"
fill="#000000" stroke="none">
<path d="M5115 9259 c-310 -21 -548 -67 -840 -163 -425 -141 -859 -377 -1220
-663 -140 -110 -447 -416 -554 -552 -435 -548 -726 -1268 -805 -1988 -19 -165
-21 -522 -5 -693 20 -222 91 -528 189 -814 267 -782 666 -1382 1236 -1860 480
-402 1037 -660 1652 -766 214 -37 575 -50 842 -30 831 62 1561 387 2155 961
332 321 578 666 796 1114 206 425 323 836 391 1370 19 152 16 625 -6 810 -50
438 -181 884 -361 1230 -192 367 -448 718 -740 1011 -414 416 -837 678 -1397
865 -448 150 -851 200 -1333 168z m575 -129 c676 -68 1380 -372 1895 -820 356
-310 687 -735 904 -1160 386 -755 474 -1653 250 -2545 -137 -544 -397 -1068
-752 -1514 -128 -160 -368 -399 -522 -519 -472 -367 -900 -565 -1461 -677
-262 -52 -348 -59 -684 -59 -321 -1 -374 4 -623 49 -252 47 -593 163 -834 284
-346 173 -616 365 -887 630 -467 457 -777 964 -1002 1636 -132 395 -187 725
-187 1110 0 358 44 644 154 1010 91 303 278 713 434 954 390 604 934 1052
1665 1371 122 54 408 146 551 178 363 82 745 107 1099 72z"/>
<path d="M5135 9084 c-16 -2 -77 -9 -135 -14 -303 -31 -642 -119 -950 -245
-114 -47 -396 -195 -535 -280 -559 -344 -1003 -830 -1283 -1403 -203 -415
-310 -771 -373 -1242 -20 -144 -17 -604 4 -760 52 -379 148 -703 339 -1145
134 -310 297 -573 527 -850 336 -407 701 -700 1150 -924 497 -249 1077 -367
1635 -332 328 21 600 71 898 167 346 111 670 286 998 540 142 110 427 392 543
539 99 124 258 357 336 489 245 418 411 912 488 1456 14 101 18 194 17 490 0
329 -2 379 -22 510 -105 672 -322 1155 -781 1735 -117 149 -371 404 -514 517
-434 344 -902 567 -1442 687 -233 52 -328 62 -610 66 -143 2 -273 1 -290 -1z
m605 -80 c345 -48 729 -161 1026 -304 574 -275 1029 -675 1404 -1235 109 -163
212 -348 199 -359 -2 -1 -119 -69 -259 -151 -374 -216 -520 -305 -520 -315 0
-13 30 0 115 47 39 22 113 63 165 93 154 86 411 235 464 269 28 17 53 31 57
31 17 0 189 -409 189 -449 0 -6 -87 -54 -192 -107 -106 -53 -267 -136 -358
-184 -91 -48 -255 -134 -365 -190 -216 -111 -227 -118 -220 -131 7 -11 74 14
159 59 39 22 127 69 196 105 69 36 181 96 250 132 222 117 519 265 533 265 20
0 91 -304 116 -500 20 -153 31 -303 31 -412 0 -102 -1 -108 -20 -108 l-21 0
21 -22 c17 -19 20 -35 20 -125 l0 -103 -1027 2 c-566 2 -892 4 -725 5 176 2
302 7 302 13 0 10 2 10 -132 10 -53 0 -107 4 -120 10 -19 7 -13 9 30 9 31 1
52 5 52 12 0 8 -25 10 -80 7 -45 -3 -77 -2 -73 1 13 10 39 45 28 39 -5 -3 -19
-2 -30 2 -19 8 -19 8 5 18 22 9 19 11 -25 11 -27 0 -84 -6 -125 -12 -66 -11
-75 -15 -71 -32 3 -19 2 -19 -16 -2 -23 20 -43 22 -43 5 0 -10 -3 -9 -9 1 -6
9 -12 -4 -21 -40 -7 -30 -16 -59 -21 -64 -4 -6 -17 -36 -29 -67 -37 -100 -116
-240 -177 -315 l-34 -43 1149 0 1150 0 -24 -112 c-28 -131 -83 -326 -95 -333
-4 -3 -659 -5 -1456 -4 -796 1 -1480 1 -1519 0 -44 -2 -75 2 -79 9 -12 20 -61
692 -71 990 l-6 155 39 64 c21 36 43 66 49 68 7 2 14 -15 17 -41 4 -24 20 -93
36 -152 17 -60 33 -138 37 -174 7 -61 8 -63 16 -30 4 19 11 85 14 145 5 94 3
119 -14 174 l-21 63 31 -28 c56 -54 121 -149 170 -249 l49 -100 -5 85 c-6 106
-29 184 -67 232 -16 20 -29 39 -29 42 0 7 103 -66 229 -163 52 -39 96 -70 98
-68 8 9 -56 169 -82 207 -65 93 -184 182 -290 216 -34 11 -36 13 -13 13 31 1
166 -56 242 -102 70 -42 98 -69 173 -169 36 -49 67 -88 69 -88 10 0 -51 109
-87 158 -22 28 -35 52 -30 52 21 0 149 -30 190 -45 24 -8 46 -13 48 -11 7 7
-139 117 -187 141 -25 12 -110 41 -190 65 -80 23 -152 44 -160 48 -24 9 198
24 285 18 44 -3 99 -12 123 -20 23 -8 42 -13 42 -10 0 2 -27 22 -59 43 -67 43
-148 74 -236 92 -47 9 -55 13 -39 19 16 6 216 34 389 53 l30 3 -40 19 c-33 16
-62 19 -170 18 -76 -1 -161 -8 -205 -17 -79 -17 -203 -71 -257 -112 -18 -14
-33 -22 -33 -18 0 23 54 84 133 150 92 78 135 101 335 184 56 24 102 45 102
48 0 6 -136 -8 -225 -24 -106 -18 -219 -63 -273 -106 -26 -22 -21 2 19 97 48
111 114 192 188 230 57 30 43 31 -41 5 -111 -34 -267 -159 -314 -252 -13 -27
-31 -74 -38 -106 l-14 -57 -1 101 c-1 91 25 288 44 337 15 37 -6 14 -30 -32
-42 -84 -73 -175 -86 -256 -7 -43 -15 -71 -19 -64 -4 8 -15 56 -24 108 -9 51
-26 121 -38 155 -21 62 -68 159 -75 153 -2 -2 2 -28 7 -58 6 -30 15 -108 21
-174 5 -66 16 -147 24 -180 15 -68 17 -69 -55 35 -50 73 -178 173 -295 231
-55 27 -104 49 -108 49 -5 0 13 -17 40 -38 54 -43 125 -119 196 -211 l49 -62
-53 20 c-70 27 -426 96 -438 85 -4 -4 55 -28 158 -65 115 -41 173 -71 247
-130 65 -51 154 -144 154 -160 0 -14 -16 -11 -30 6 -23 28 -115 74 -195 97
-69 20 -103 23 -240 23 -101 0 -188 -5 -235 -15 -60 -12 -68 -15 -40 -17 128
-10 265 -26 325 -38 69 -15 179 -54 172 -61 -2 -3 -27 1 -55 7 -42 10 -62 9
-119 -5 -64 -15 -221 -82 -212 -90 2 -2 27 0 54 4 60 10 289 11 360 1 l50 -6
-50 -13 c-166 -44 -298 -88 -355 -118 -65 -34 -184 -132 -145 -119 46 16 249
65 267 65 16 0 13 -8 -21 -50 -23 -27 -59 -72 -82 -100 -22 -27 -38 -50 -35
-50 17 0 153 107 219 172 85 84 212 158 271 157 29 0 28 -1 -19 -20 -173 -71
-343 -257 -362 -397 l-6 -41 70 67 c92 89 230 212 237 212 4 0 -6 -18 -20 -40
-15 -22 -35 -70 -46 -108 -23 -82 -37 -269 -20 -258 7 4 12 14 12 23 0 18 81
181 112 227 33 47 100 127 104 124 2 -2 -3 -22 -10 -43 -16 -45 -19 -95 -17
-237 0 -54 5 -98 10 -98 5 0 14 30 21 68 9 53 65 274 86 341 6 19 27 0 71 -66
l36 -54 -6 -402 c-5 -400 -12 -505 -45 -667 l-17 -85 -1544 0 -1545 0 -7 25
c-4 14 -35 106 -68 204 -34 99 -61 188 -61 198 0 17 42 18 1124 18 l1124 0
-45 67 c-49 74 -143 261 -143 286 0 13 -13 16 -66 16 -36 0 -69 2 -72 5 -3 3
25 6 61 6 37 0 67 3 67 6 0 3 -5 14 -10 25 -10 19 -31 19 -872 19 -474 0 -859
2 -857 5 3 2 225 5 494 6 324 1 482 5 465 11 -14 5 -46 7 -71 4 -26 -2 -51 0
-57 6 -7 7 -26 7 -62 -2 -46 -11 -54 -11 -68 5 -10 10 -12 15 -5 11 6 -3 14
-2 18 4 10 16 -37 30 -54 16 -12 -9 -14 -8 -9 6 5 10 0 18 -11 21 -14 3 -17 0
-14 -17 4 -21 4 -21 -11 -2 -16 20 -23 20 -128 15 -37 -2 -48 -6 -48 -19 0
-28 -11 -30 -30 -7 -17 20 -20 21 -56 8 -21 -8 -44 -20 -52 -27 -7 -8 -19 -14
-25 -13 -8 0 -8 2 -1 5 6 2 8 18 6 35 l-5 31 -83 -4 -84 -4 0 43 c0 26 -5 43
-12 43 -14 0 -48 30 -48 42 0 4 8 9 18 9 16 1 16 2 0 6 -28 7 -57 -14 -51 -37
4 -16 0 -20 -22 -20 -39 0 -29 26 20 53 51 28 49 26 44 32 -3 2 -70 -16 -149
-40 -144 -45 -271 -78 -342 -90 l-38 -6 0 123 c0 68 4 129 9 137 8 12 22 11
95 -8 47 -11 105 -21 128 -21 78 0 292 65 441 133 71 33 77 38 68 56 -11 20
-151 97 -151 83 0 -4 -4 -2 -8 5 -10 16 -164 116 -179 116 -7 0 -13 4 -13 9 0
10 -81 61 -97 61 -6 0 -11 4 -10 8 3 12 -74 60 -85 53 -6 -4 -8 -3 -5 2 3 5
-19 25 -49 44 -30 19 -54 42 -54 50 0 19 76 280 84 287 3 3 65 -28 138 -69 73
-42 276 -153 450 -247 280 -152 320 -171 339 -160 20 10 12 16 -87 66 -122 62
-392 208 -651 351 -96 52 -173 101 -173 109 0 37 165 433 180 433 4 0 25 -13
46 -28 49 -36 332 -198 597 -343 233 -127 211 -117 215 -104 2 6 -9 15 -25 20
-16 6 -47 22 -69 36 -37 24 -222 130 -594 339 -91 51 -166 94 -167 95 -13 9
136 265 268 460 310 459 751 837 1324 1131 399 205 883 332 1365 358 116 6
402 -5 510 -20z m-3730 -2806 c0 -17 2 -18 16 -8 13 11 16 10 21 -9 4 -17 8
-19 14 -9 6 9 11 10 17 2 4 -6 15 -10 25 -8 9 1 15 -2 11 -7 -4 -8 17 -14 39
-10 4 0 7 -5 7 -11 1 -7 17 -23 36 -35 19 -13 32 -18 29 -13 -3 6 -2 10 4 10
5 0 13 -9 16 -20 3 -11 11 -20 16 -20 5 0 9 -8 9 -17 0 -15 2 -16 10 -3 5 8
10 10 10 4 0 -11 36 -28 54 -25 5 1 6 -5 3 -14 -4 -9 -1 -15 8 -15 8 0 15 -4
15 -10 0 -5 7 -7 15 -4 13 6 20 -6 16 -28 0 -5 10 -8 23 -8 29 0 53 -24 35
-36 -8 -5 -9 -3 -4 6 5 9 2 10 -14 5 -13 -4 -21 -2 -21 5 0 7 -6 8 -17 2 -29
-14 -197 -16 -188 -2 5 7 20 9 40 6 19 -4 36 -2 40 4 5 9 -51 14 -147 13 -10
0 -18 8 -18 18 0 18 -36 33 -46 18 -9 -15 -64 -11 -64 5 0 8 6 17 13 20 6 4 2
4 -10 2 -14 -2 -23 2 -26 13 -3 11 -7 8 -16 -14 -9 -22 -14 -26 -20 -16 -6 9
-8 1 -7 -20 3 -40 -2 -59 -16 -59 -5 0 -6 5 -3 10 4 6 8 36 10 67 6 102 37
242 52 236 7 -3 13 -14 13 -25z m-73 -320 c-3 -8 -6 -5 -6 6 -1 11 2 17 5 13
3 -3 4 -12 1 -19z m597 -19 c-7 -11 -1 -11 30 1 17 6 27 6 32 -2 4 -7 3 -8 -4
-4 -7 4 -10 -1 -7 -16 4 -23 4 -23 -11 -3 -16 20 -16 20 -10 -2 5 -16 2 -23
-14 -28 -12 -4 -24 -4 -27 -1 -4 3 1 6 10 6 10 0 17 5 17 10 0 6 -6 10 -14 10
-7 0 -16 11 -18 24 -4 17 -1 23 9 19 7 -3 10 -9 7 -14z m86 -10 c0 -10 -4 -19
-9 -19 -5 0 -8 11 -8 25 0 13 3 22 8 19 5 -3 9 -14 9 -25z m-113 -35 c-3 -3
-12 -4 -19 -1 -8 3 -5 6 6 6 11 1 17 -2 13 -5z m4359 -416 c-9 -5 -27 -7 -39
-5 -18 4 -17 5 6 6 16 0 25 5 22 11 -4 6 1 7 11 3 15 -5 15 -7 0 -15z m-4111
-49 c-9 -13 -44 -17 -54 -5 -8 9 -1 12 24 12 18 0 32 -3 30 -7z m138 -6 c-7
-2 -19 -2 -25 0 -7 3 -2 5 12 5 14 0 19 -2 13 -5z m-895 -30 c-15 -2 -42 -2
-60 0 -18 2 -6 4 27 4 33 0 48 -2 33 -4z m200 0 c-15 -2 -42 -2 -60 0 -18 2
-6 4 27 4 33 0 48 -2 33 -4z m115 0 c-13 -2 -33 -2 -45 0 -13 2 -3 4 22 4 25
0 35 -2 23 -4z m4466 -1051 c-41 -27 -96 -69 -124 -93 -134 -119 -228 -169
-420 -222 l-80 -22 -1892 -2 c-1877 -3 -1892 -3 -1903 16 -6 11 -24 60 -41
108 -33 94 -65 156 -111 214 -15 20 -28 40 -28 43 0 3 1051 6 2336 6 l2337 0
-74 -48z m-1345 -515 c14 -30 43 -80 64 -113 21 -32 38 -69 39 -81 l2 -23
-1170 0 c-779 0 -1169 3 -1169 10 0 17 122 151 188 207 l62 53 979 0 979 0 26
-53z m201 -257 c11 -5 16 -9 11 -9 -5 -1 -3 -8 4 -16 7 -8 17 -12 23 -8 5 3 7
1 4 -5 -4 -5 4 -33 18 -60 14 -28 28 -64 31 -81 l7 -31 -924 -2 c-508 -1
-1156 -2 -1439 -3 l-515 0 -94 80 c-52 44 -110 95 -130 112 l-36 32 1510 0
c831 0 1519 -4 1530 -9z m115 -20 c0 -5 -7 -10 -16 -10 -8 0 -12 5 -9 10 3 6
10 10 16 10 5 0 9 -4 9 -10z m37 4 c-3 -3 -12 -4 -19 -1 -8 3 -5 6 6 6 11 1
17 -2 13 -5z m63 2 c0 -2 -7 -6 -15 -10 -8 -3 -15 -1 -15 4 0 6 7 10 15 10 8
0 15 -2 15 -4z m-63 -140 c-4 -9 1 -17 11 -19 12 -3 11 -5 -5 -6 -17 -1 -23 5
-23 19 0 11 5 20 11 20 6 0 9 -6 6 -14z m156 7 c-10 -3 -9 -8 2 -20 11 -11 27
-13 53 -9 27 4 32 3 17 -4 -14 -7 -6 -8 30 -5 28 3 100 1 160 -3 88 -7 98 -10
50 -11 -33 -1 -72 -4 -88 -6 -18 -2 -25 0 -21 7 5 8 1 9 -11 4 -34 -13 -352
-19 -359 -7 -5 7 2 11 18 11 28 0 34 18 14 38 -9 9 6 12 68 11 43 0 73 -3 67
-6z m214 -19 c-3 -3 -12 -4 -19 -1 -8 3 -5 6 6 6 11 1 17 -2 13 -5z m-397 -28
c0 -3 -4 -8 -10 -11 -5 -3 -10 -1 -10 4 0 6 5 11 10 11 6 0 10 -2 10 -4z m190
-57 c201 -6 379 -14 395 -19 25 -7 18 -9 -40 -11 -38 -1 -77 -3 -85 -3 -12 -1
-14 -13 -13 -54 3 -50 2 -52 -25 -54 -15 0 -34 -1 -42 -2 -10 -1 -16 -14 -18
-38 -3 -36 -1 -38 24 -38 33 0 21 -16 -16 -23 -14 -2 3 -5 37 -6 38 0 64 -6
67 -13 5 -10 7 -10 12 0 3 6 21 12 40 12 20 0 33 -4 30 -9 -3 -4 13 -5 37 -1
23 5 44 4 47 0 3 -5 34 -5 69 0 39 5 83 5 114 -1 32 -6 99 -5 186 1 75 6 191
11 258 13 68 1 123 5 123 9 0 4 9 10 20 13 11 3 20 13 20 22 0 10 6 13 16 9 8
-3 13 -2 10 2 -10 16 38 52 69 52 9 0 15 9 16 23 0 12 3 16 6 10 6 -15 40 0
60 26 11 14 14 14 22 1 10 -15 1 -25 -29 -32 -19 -4 -52 -31 -131 -106 l-66
-63 -1951 -2 -1951 -2 -38 36 c-21 20 -85 67 -142 104 -58 38 -122 84 -144
104 l-40 36 499 5 c979 10 2195 10 2554 -1z m658 -16 c-10 -2 -26 -2 -35 0
-10 3 -2 5 17 5 19 0 27 -2 18 -5z m192 -1 c0 -5 -13 -7 -30 -4 -16 2 -30 6
-30 8 0 2 14 4 30 4 17 0 30 -4 30 -8z m375 -10 c-3 -3 -11 0 -18 7 -9 10 -8
11 6 5 10 -3 15 -9 12 -12z m273 11 c-10 -2 -26 -2 -35 0 -10 3 -2 5 17 5 19
0 27 -2 18 -5z m48 -9 c-4 -12 -2 -15 9 -10 8 3 15 1 15 -4 0 -12 -21 -13 -35
-2 -17 12 -16 32 1 32 11 0 14 -5 10 -16z m89 6 c-27 -12 -43 -12 -25 0 8 5
22 9 30 9 10 0 8 -3 -5 -9z m-105 -35 c0 -2 -14 -12 -31 -21 -23 -11 -34 -13
-42 -5 -8 8 -4 11 14 11 13 0 31 5 39 10 17 11 20 12 20 5z m-190 -65 c0 -5
-5 -10 -11 -10 -5 0 -7 5 -4 10 3 6 8 10 11 10 2 0 4 -4 4 -10z m-1473 -206
c6 -16 -12 -199 -23 -227 -3 -9 -21 -16 -42 -19 -20 -1 -496 -1 -1058 2 -830
4 -1024 7 -1037 18 -9 8 -24 12 -34 9 -14 -4 -13 -5 5 -6 12 0 22 -5 22 -11 0
-6 -48 -10 -125 -10 l-125 0 6 25 c5 19 2 25 -10 25 -22 0 -20 9 9 52 14 20
25 40 25 44 0 12 -33 34 -104 67 l-70 32 1065 5 c585 3 1160 6 1277 8 185 2
213 0 219 -14z m1273 -4 c0 -5 -4 -10 -10 -10 -5 0 -10 5 -10 10 0 6 5 10 10
10 6 0 10 -4 10 -10z m-96 -25 c3 -9 -1 -18 -9 -21 -8 -4 -15 -10 -15 -14 0
-10 56 -19 68 -11 4 3 -38 -40 -95 -97 -63 -63 -107 -101 -114 -96 -7 4 -9 3
-6 -3 6 -9 -66 -79 -163 -159 -19 -16 -41 -35 -48 -41 -18 -17 35 -16 -432 -9
-152 2 -296 0 -321 -3 -52 -8 -121 -3 -114 9 6 10 -24 22 -36 15 -5 -4 -6 1
-3 10 5 11 10 13 19 5 8 -7 16 -7 19 -2 3 5 20 7 38 5 40 -6 23 -5 187 -3 114
2 137 -1 147 -14 8 -12 28 -16 70 -16 42 0 55 3 44 10 -13 8 -12 10 3 10 9 0
17 -4 17 -10 0 -5 11 -10 25 -10 16 0 23 4 19 14 -3 7 2 16 10 19 9 4 16 2 16
-4 0 -6 9 -8 19 -4 11 3 22 1 26 -5 3 -6 25 -8 50 -5 24 3 46 1 49 -4 6 -10
46 -3 46 8 0 11 50 9 50 -3 0 -6 5 -3 11 7 7 12 17 16 31 11 16 -5 19 -3 12 7
-7 12 -5 12 9 1 14 -12 16 -11 12 7 -2 12 0 19 6 16 5 -4 9 1 9 9 0 9 3 15 8
14 4 -2 9 2 10 7 11 30 25 45 42 45 12 0 22 9 26 24 3 15 11 23 19 20 7 -3 16
4 20 15 3 12 10 19 15 16 4 -3 21 9 38 26 16 16 38 31 49 32 14 1 19 6 16 18
-3 10 6 29 21 43 14 14 23 26 20 26 -3 0 2 10 10 22 9 12 16 30 16 40 0 10 5
18 11 18 5 0 7 5 4 10 -3 6 -2 10 3 10 6 0 13 -7 16 -15z m-1024 -9 c0 -2 -7
-7 -16 -10 -8 -3 -12 -2 -9 4 6 10 25 14 25 6z m-94 -33 c-3 -8 -2 -11 3 -8
12 7 17 -2 25 -47 7 -38 7 -38 -28 -38 -38 0 -57 16 -31 26 9 4 15 14 14 23
-4 41 2 72 12 66 6 -4 8 -14 5 -22z m34 7 c0 -5 -4 -10 -10 -10 -5 0 -10 5
-10 10 0 6 5 10 10 10 6 0 10 -4 10 -10z m425 -168 l0 -107 -59 -7 c-37 -5
-64 -4 -72 3 -7 5 -23 8 -36 6 -12 -2 -18 -2 -12 0 6 2 8 17 6 34 -5 35 18 58
61 59 25 0 27 3 27 45 0 35 3 43 15 39 10 -4 18 3 24 19 7 18 15 24 28 21 16
-5 18 -17 18 -112z m-175 88 c0 -18 -7 -20 -79 -20 -70 0 -79 2 -84 20 -5 19
0 20 79 20 77 0 84 -2 84 -20z m-343 -95 c0 -8 -4 -12 -9 -9 -5 3 -6 10 -3 15
9 13 12 11 12 -6z m83 -66 c0 -16 5 -29 11 -29 6 0 9 -6 6 -14 -3 -7 0 -19 6
-25 8 -8 8 -11 0 -11 -6 0 -9 -9 -6 -20 5 -17 0 -20 -30 -20 -31 0 -34 3 -30
21 5 19 3 21 -18 17 -23 -4 -25 -2 -21 24 3 18 10 28 21 28 26 0 31 9 19 36
-9 18 -8 30 2 49 l13 25 14 -26 c7 -15 13 -39 13 -55z m-94 13 c-17 -16 -18
-16 -5 5 7 12 15 20 18 17 3 -2 -3 -12 -13 -22z m-33 -3 c3 -12 3 -18 0 -15
-5 5 -45 -69 -91 -168 -3 -5 1 -5 8 -1 9 6 11 4 5 -5 -6 -10 -206 -12 -1045
-7 -964 5 -1039 6 -1071 22 -63 33 -139 87 -133 96 3 5 -1 7 -8 4 -7 -3 -26 7
-43 21 -16 14 -24 23 -18 19 7 -3 21 -1 31 4 14 7 25 6 39 -4 18 -13 22 -13
27 1 3 8 11 12 16 9 6 -4 16 -2 23 3 7 5 21 12 32 15 12 3 5 6 -20 8 -98 8
414 15 1291 17 l952 2 5 -21z m305 -46 c-27 -2 -69 -2 -95 0 -27 2 -5 3 47 3
52 0 74 -1 48 -3z m-335 -70 c-7 -2 -13 -9 -13 -14 0 -6 5 -7 12 -3 7 5 8 3 3
-5 -5 -9 -11 -9 -17 -3 -12 12 -2 32 15 31 9 0 9 -2 0 -6z m-103 -126 c0 -17
-73 -91 -122 -124 -21 -14 -35 -30 -31 -36 3 -6 1 -7 -5 -3 -16 10 -122 -45
-122 -64 0 -9 -3 -11 -8 -4 -5 7 -23 5 -60 -6 -29 -9 -51 -18 -48 -21 2 -2
-12 -5 -32 -5 -20 -1 -115 -5 -210 -9 -276 -12 -428 15 -584 104 -62 35 -208
159 -208 176 0 3 322 5 715 5 592 0 715 -2 715 -13z m40 -13 c0 -2 -7 -4 -15
-4 -8 0 -15 4 -15 10 0 5 7 7 15 4 8 -4 15 -8 15 -10z m80 0 c0 -2 -9 -4 -20
-4 -11 0 -20 4 -20 9 0 5 9 7 20 4 11 -3 20 -7 20 -9z m95 6 c8 -13 -45 -13
-65 0 -11 7 -6 10 22 10 20 0 40 -4 43 -10z m332 4 c-3 -3 -12 -4 -19 -1 -8 3
-5 6 6 6 11 1 17 -2 13 -5z m103 -8 c-31 -29 -129 -86 -124 -71 4 8 12 15 20
15 8 0 14 5 14 10 0 6 6 10 14 10 7 0 19 6 25 14 9 11 8 14 -5 12 -9 0 -19 4
-21 9 -2 6 17 12 44 13 40 1 45 0 33 -12z m-362 -3 c-10 -2 -26 -2 -35 0 -10
3 -2 5 17 5 19 0 27 -2 18 -5z m105 0 c-7 -2 -19 -2 -25 0 -7 3 -2 5 12 5 14
0 19 -2 13 -5z m-353 -39 c0 -19 -29 -18 -36 1 -4 8 -11 12 -17 8 -5 -3 -7 -1
-4 4 9 15 57 3 57 -13z m-50 -15 c0 -5 4 -8 9 -4 5 3 12 1 15 -4 3 -5 -4 -11
-15 -14 -12 -3 -18 -10 -15 -16 4 -6 13 -8 21 -4 20 7 19 -21 -1 -38 -13 -10
-17 -10 -25 2 -6 9 -12 10 -16 4 -13 -16 -33 -16 -33 1 0 9 -5 12 -12 8 -10
-6 -10 -5 -1 8 7 8 10 18 6 22 -4 4 0 4 10 0 13 -5 17 -1 18 17 0 13 3 18 6
12 2 -7 9 -13 14 -13 4 0 6 7 3 15 -4 8 -1 15 5 15 6 0 11 -5 11 -11z m470
-69 c-39 -29 -105 -63 -91 -46 10 11 8 17 -6 25 -15 9 -12 10 12 5 22 -4 40 1
65 19 40 27 57 25 20 -3z m-586 -31 c-10 -12 -18 -24 -17 -28 6 -14 -9 -41
-23 -42 -35 -3 -57 -16 -49 -30 4 -5 -6 -9 -20 -9 -16 0 -24 4 -19 11 5 8 1 8
-14 0 -16 -8 -21 -7 -26 4 -3 8 -10 15 -17 15 -6 0 -9 -6 -6 -13 3 -9 -2 -13
-16 -12 -11 1 -23 7 -25 14 -2 6 0 11 5 10 4 -1 16 1 26 6 10 4 23 2 31 -4 11
-10 16 -8 21 8 7 23 20 27 30 11 3 -5 14 -10 23 -10 10 0 13 3 7 8 -9 6 -11
15 -6 38 0 4 8 1 17 -7 26 -21 66 -18 52 5 -3 5 33 46 40 46 3 0 -3 -9 -14
-21z m-45 -30 c-16 -10 -23 -4 -14 10 3 6 11 8 17 5 6 -4 5 -9 -3 -15z m516
-9 c-3 -6 -21 -17 -38 -26 -18 -9 -45 -28 -60 -42 -21 -20 -38 -27 -72 -27
-25 0 -45 -3 -45 -6 0 -12 -93 -30 -123 -23 -19 4 -27 3 -23 -4 7 -12 -101
-32 -185 -35 -30 -1 -56 -5 -59 -9 -3 -4 -33 -10 -65 -13 l-60 -5 60 15 c33 9
74 17 90 18 21 1 29 7 27 17 -3 12 -1 13 9 3 15 -15 33 -17 24 -4 -6 10 8 16
69 26 37 6 39 5 25 -11 -13 -16 -12 -17 16 -10 16 4 32 11 35 15 3 4 29 7 58
7 29 -1 56 4 60 10 4 6 16 13 27 16 11 3 29 9 40 13 16 5 17 5 5 -4 -13 -9
-13 -11 3 -11 11 0 17 8 17 24 0 27 38 44 47 20 3 -8 9 -11 14 -8 5 3 7 9 4
14 -3 5 0 12 6 16 8 5 9 3 4 -6 -5 -9 -3 -11 6 -6 8 3 22 9 32 12 9 4 17 10
17 14 0 5 8 11 18 13 9 3 18 5 20 6 2 0 0 -4 -3 -9z m-758 -85 c0 -8 -6 -15
-14 -15 -7 0 -13 7 -13 15 0 8 6 15 13 15 8 0 14 -7 14 -15z m81 -13 c2 -7 -6
-12 -17 -12 -12 0 -21 2 -21 4 0 2 -3 12 -6 20 -5 13 -2 15 17 8 13 -5 25 -14
27 -20z"/>
<path d="M3538 5833 c7 -3 16 -2 19 1 4 3 -2 6 -13 5 -11 0 -14 -3 -6 -6z"/>
<path d="M6855 5804 c-22 -13 -60 -31 -83 -41 -37 -14 -45 -14 -53 -2 -7 11
-9 9 -9 -8 0 -19 3 -21 28 -14 41 12 141 62 153 78 15 17 12 16 -36 -13z"/>
<path d="M3663 5797 c9 -8 17 -18 17 -23 1 -20 68 -76 86 -71 16 4 15 5 -3 6
-13 0 -23 5 -23 10 0 14 21 8 62 -17 19 -12 43 -19 52 -16 9 4 18 0 22 -9 7
-21 52 -31 70 -16 17 14 10 18 -156 91 -137 60 -152 65 -127 45z m81 -48 c-8
-14 -24 -10 -24 6 0 9 6 12 15 9 8 -4 12 -10 9 -15z"/>
<path d="M6736 5771 c-4 -5 3 -7 14 -4 23 6 26 13 6 13 -8 0 -17 -4 -20 -9z"/>
<path d="M3997 5647 c11 -18 14 -49 4 -43 -5 3 -11 -3 -14 -14 -3 -11 -2 -18
3 -15 4 3 10 -4 13 -15 3 -11 11 -20 18 -20 9 0 10 3 2 11 -6 6 -8 29 -6 53 4
34 2 44 -11 49 -12 5 -15 3 -9 -6z"/>
<path d="M2566 5599 c3 -5 9 -7 14 -4 5 3 20 1 32 -6 18 -9 21 -9 11 1 -14 15
-66 23 -57 9z"/>
<path d="M6705 5601 c-3 -5 -9 -30 -14 -56 -8 -40 -7 -44 7 -33 13 11 15 10 9
-5 -4 -11 -3 -16 3 -12 14 8 13 35 -1 35 -8 0 -7 6 2 17 10 11 10 14 2 9 -7
-4 -13 -2 -13 3 0 6 4 11 8 11 4 0 8 9 8 20 0 22 -2 24 -11 11z"/>
<path d="M8473 5578 c22 -6 42 -7 47 -2 5 5 -12 10 -38 11 l-47 1 38 -10z"/>
<path d="M8560 5569 c0 -4 7 -10 16 -13 22 -8 26 -8 20 3 -4 5 0 11 6 14 7 2
1 4 -14 3 -16 0 -28 -4 -28 -7z"/>
<path d="M2700 5548 c0 -7 12 -14 26 -14 28 -2 28 -1 -3 15 -18 9 -23 9 -23
-1z"/>
<path d="M8650 5536 c0 -2 7 -7 16 -10 8 -3 12 -2 9 4 -6 10 -25 14 -25 6z"/>
<path d="M2765 5520 c3 -6 1 -10 -6 -10 -7 0 -10 -3 -6 -6 3 -3 13 -2 22 4 16
8 16 9 1 15 -10 4 -15 3 -11 -3z"/>
<path d="M2935 5500 c4 -6 11 -8 16 -5 14 9 11 15 -7 15 -8 0 -12 -5 -9 -10z"/>
<path d="M6775 5500 c3 -6 1 -10 -6 -10 -7 0 -10 -3 -6 -6 3 -3 13 -2 22 4 16
8 16 9 1 15 -10 4 -15 3 -11 -3z"/>
<path d="M2845 5490 c-3 -5 1 -10 10 -10 9 0 13 5 10 10 -3 6 -8 10 -10 10 -2
0 -7 -4 -10 -10z"/>
<path d="M3880 5453 c8 -3 18 -11 22 -17 5 -7 8 -4 8 7 0 11 -7 17 -22 16 -16
0 -18 -2 -8 -6z"/>
<path d="M2857 5430 c-4 -16 0 -20 19 -20 17 0 24 6 24 20 0 13 -7 20 -19 20
-10 0 -21 -9 -24 -20z"/>
<path d="M3932 5427 c-8 -10 -5 -13 15 -15 22 -2 24 0 13 13 -15 18 -15 18
-28 2z"/>
<path d="M3983 5398 c-2 -18 0 -20 7 -8 6 8 10 10 10 3 0 -7 9 -9 23 -5 19 5
20 3 10 -10 -11 -12 -9 -18 9 -34 14 -12 18 -14 13 -4 -5 9 0 8 13 -4 l22 -19
-11 32 c-7 21 -24 38 -50 51 -47 24 -44 25 -46 -2z"/>
<path d="M3048 5403 c7 -3 16 -2 19 1 4 3 -2 6 -13 5 -11 0 -14 -3 -6 -6z"/>
<path d="M7190 5370 c0 -5 12 -10 26 -10 14 0 23 4 19 10 -3 6 -15 10 -26 10
-10 0 -19 -4 -19 -10z"/>
<path d="M3208 5363 c7 -3 16 -2 19 1 4 3 -2 6 -13 5 -11 0 -14 -3 -6 -6z"/>
<path d="M3258 5353 c7 -3 16 -2 19 1 4 3 -2 6 -13 5 -11 0 -14 -3 -6 -6z"/>
<path d="M3400 5330 c-7 -4 27 -8 76 -9 48 -1 85 1 82 4 -9 10 -145 13 -158 5z"/>
<path d="M3585 5330 c-3 -5 1 -10 10 -10 9 0 13 5 10 10 -3 6 -8 10 -10 10 -2
0 -7 -4 -10 -10z"/>
<path d="M3766 5328 c3 -5 28 -8 56 -8 28 0 49 3 45 6 -9 9 -106 11 -101 2z"/>
<path d="M3885 5329 c-4 -5 5 -9 19 -9 14 0 26 4 26 8 0 11 -39 12 -45 1z"/>
<path d="M3708 5323 c6 -2 18 -2 25 0 6 3 1 5 -13 5 -14 0 -19 -2 -12 -5z"/>
<path d="M2058 6013 c7 -3 16 -2 19 1 4 3 -2 6 -13 5 -11 0 -14 -3 -6 -6z"/>
<path d="M5756 3217 c3 -10 9 -15 12 -12 3 3 0 11 -7 18 -10 9 -11 8 -5 -6z"/>
<path d="M5774 3170 c3 -14 12 -47 20 -74 8 -32 15 -43 19 -33 3 9 -1 30 -9
46 -9 17 -12 35 -9 41 3 6 -2 18 -11 27 -16 17 -17 17 -10 -7z"/>
<path d="M6176 3153 c-6 -14 -5 -15 5 -6 7 7 10 15 7 18 -3 3 -9 -2 -12 -12z"/>
<path d="M5812 3010 c0 -19 2 -27 5 -17 2 9 2 25 0 35 -3 9 -5 1 -5 -18z"/>
<path d="M6330 2450 c-24 -8 -23 -8 8 -9 20 -1 31 3 27 9 -3 6 -7 10 -8 9 -1
-1 -13 -5 -27 -9z"/>
<path d="M3410 2566 c7 -7 14 -6 21 1 9 9 7 12 -9 10 -14 -1 -18 -5 -12 -11z"/>
<path d="M3890 2551 c-9 -17 -7 -19 20 -14 22 3 30 0 28 -9 -2 -7 4 -12 14
-10 9 1 20 -3 24 -9 4 -8 3 -9 -4 -5 -7 4 -12 3 -12 -2 0 -15 30 -23 30 -9 0
7 5 4 11 -5 5 -10 20 -18 32 -17 16 0 18 2 7 7 -8 4 -41 26 -72 50 -32 23 -59
42 -62 42 -3 0 -10 -9 -16 -19z m30 5 c0 -3 -4 -8 -10 -11 -5 -3 -10 -1 -10 4
0 6 5 11 10 11 6 0 10 -2 10 -4z"/>
<path d="M5506 2032 c-3 -5 1 -9 9 -9 8 0 12 4 9 9 -3 4 -7 8 -9 8 -2 0 -6 -4
-9 -8z"/>
</g>
</svg>
